<svg width="66" height="66" viewBox="0 0 66 66" fill="none" xmlns="http://www.w3.org/2000/svg">
<path d="M11 49.5C10.2208 49.5 9.56818 49.236 9.04201 48.708C8.51584 48.18 8.25184 47.5273 8.25001 46.75C8.24818 45.9727 8.51218 45.32 9.04201 44.792C9.57184 44.264 10.2245 44 11 44H55C55.7792 44 56.4328 44.264 56.9608 44.792C57.4888 45.32 57.7518 45.9727 57.75 46.75C57.7482 47.5273 57.4842 48.1809 56.958 48.7107C56.4318 49.2406 55.7792 49.5037 55 49.5H11ZM11 35.75C10.2208 35.75 9.56818 35.486 9.04201 34.958C8.51584 34.43 8.25184 33.7773 8.25001 33C8.24818 32.2227 8.51218 31.57 9.04201 31.042C9.57184 30.514 10.2245 30.25 11 30.25H55C55.7792 30.25 56.4328 30.514 56.9608 31.042C57.4888 31.57 57.7518 32.2227 57.75 33C57.7482 33.7773 57.4842 34.4309 56.958 34.9608C56.4318 35.4906 55.7792 35.7537 55 35.75H11ZM11 22C10.2208 22 9.56818 21.736 9.04201 21.208C8.51584 20.68 8.25184 20.0273 8.25001 19.25C8.24818 18.4727 8.51218 17.82 9.04201 17.292C9.57184 16.764 10.2245 16.5 11 16.5H55C55.7792 16.5 56.4328 16.764 56.9608 17.292C57.4888 17.82 57.7518 18.4727 57.75 19.25C57.7482 20.0273 57.4842 20.6809 56.958 21.2107C56.4318 21.7406 55.7792 22.0037 55 22H11Z" fill="#F2F2F2"/>
</svg>
